<svg class="header__logo header__logo--black" id="logo" viewBox="0 0 694.625 80.537"><g transform="translate(-56.693 -56.149)"><path d="M56.693,57.484H72.488l36.488,47.944V57.484h16.9v77.867H111.31L73.6,85.85v49.5H56.693Z"></path><path d="M133.141,105.872v-.222c0-17.019,12.123-31.036,29.476-31.036,19.912,0,29.035,15.463,29.035,32.371,0,1.336-.111,2.893-.225,4.45H149.935c1.668,7.677,7.009,11.679,14.575,11.679,5.673,0,9.786-1.779,14.461-6.117l9.678,8.565c-5.562,6.9-13.573,11.124-24.364,11.124C146.378,136.686,133.141,124.116,133.141,105.872Zm42.046-5c-1-7.566-5.451-12.681-12.57-12.681-7.008,0-11.568,5-12.9,12.681Z"></path><path d="M203.393,118.443V90.188h-7.119V75.727h7.119V60.487H220.3v15.24h14.017V90.188H220.3v25.474c0,3.894,1.668,5.784,5.451,5.784a17.2,17.2,0,0,0,8.344-2.112V132.9a24.929,24.929,0,0,1-13.351,3.451C210.4,136.354,203.393,132.237,203.393,118.443Z"></path><path d="M241.5,96.641v-.222c0-22.138,16.687-40.27,40.6-40.27,14.686,0,23.473,4.9,30.7,12.015L301.9,80.735c-6.006-5.451-12.123-8.791-19.912-8.791-13.125,0-22.582,10.9-22.582,24.253v.222c0,13.348,9.235,24.472,22.582,24.472,8.9,0,14.35-3.561,20.47-9.124l10.9,11.014c-8.007,8.565-16.909,13.905-31.924,13.905C258.52,136.686,241.5,119,241.5,96.641Z"></path><path d="M316.6,105.872v-.222c0-17.13,13.791-31.036,32.368-31.036,18.466,0,32.149,13.684,32.149,30.814v.222c0,17.131-13.794,31.036-32.371,31.036C330.283,136.686,316.6,123,316.6,105.872Zm47.831,0v-.222c0-8.787-6.339-16.461-15.685-16.461-9.678,0-15.462,7.452-15.462,16.239v.222c0,8.788,6.342,16.465,15.684,16.465C358.649,122.115,364.434,114.659,364.434,105.872Z"></path><path d="M387.646,75.727h16.908v8.455c3.9-5,8.9-9.568,17.464-9.568,12.792,0,20.244,8.455,20.244,22.138v38.6h-16.9V102.092c0-8.01-3.783-12.126-10.237-12.126s-10.566,4.116-10.566,12.126v33.259H387.646Z"></path><path d="M448.667,127.452l7.23-11.121c6.453,4.671,13.24,7.119,18.8,7.119,4.893,0,7.119-1.782,7.119-4.449v-.225c0-3.669-5.787-4.893-12.348-6.894-8.344-2.448-17.8-6.343-17.8-17.911v-.222c0-12.126,9.789-18.913,21.8-18.913a41.257,41.257,0,0,1,22.245,6.9l-6.45,11.683c-5.895-3.45-11.79-5.562-16.131-5.562-4.113,0-6.228,1.779-6.228,4.116v.222c0,3.336,5.673,4.893,12.126,7.119,8.34,2.781,18.018,6.783,18.018,17.686v.222c0,13.239-9.9,19.246-22.8,19.246A41.76,41.76,0,0,1,448.667,127.452Z"></path><path d="M508.82,118.443V90.188H501.7V75.727h7.119V60.487h16.908v15.24h14.017V90.188H525.728v25.474c0,3.894,1.668,5.784,5.452,5.784a17.2,17.2,0,0,0,8.343-2.112V132.9a24.927,24.927,0,0,1-13.351,3.451C515.828,136.354,508.82,132.237,508.82,118.443Z"></path><path d="M547.543,75.727h16.909V87.743c3.447-8.232,9.009-13.573,19.02-13.129V92.3h-.887c-11.236,0-18.133,6.786-18.133,21.025v22.023H547.543Z"></path><path d="M591.039,114.327v-38.6h16.908v33.259c0,8.011,3.784,12.127,10.234,12.127S628.75,117,628.75,108.986V75.727h16.909v59.624H628.75V126.9c-3.894,5.007-8.9,9.568-17.467,9.568C598.491,136.465,591.039,128.01,591.039,114.327Z"></path><path d="M652.71,105.872v-.222c0-17.019,13.014-31.036,31.254-31.036,11.236,0,18.244,3.784,23.806,10.012L697.426,95.75c-3.783-4-7.563-6.561-13.573-6.561-8.454,0-14.46,7.452-14.46,16.239v.222c0,9.124,5.9,16.465,15.13,16.465,5.673,0,9.567-2.448,13.68-6.342l9.9,10.011c-5.784,6.342-12.456,10.9-24.361,10.9C665.835,136.686,652.71,122.892,652.71,105.872Z"></path><path d="M720.4,118.443V90.188h-7.12V75.727h7.12V60.487H737.3v15.24h14.016V90.188H737.3v25.474c0,3.894,1.671,5.784,5.451,5.784a17.2,17.2,0,0,0,8.343-2.112V132.9a24.9,24.9,0,0,1-13.347,3.451C727.4,136.354,720.4,132.237,720.4,118.443Z"></path></g></svg>